<svg width="173" height="172" viewBox="0 0 173 172" fill="none" xmlns="http://www.w3.org/2000/svg">
<path fill-rule="evenodd" clip-rule="evenodd" d="M80.689 24.7973C81.515 24.1053 87.378 17.7023 95.826 24.2733C98.174 26.1003 100.272 28.2423 102.511 34.6653C102.974 35.9933 102.811 36.0123 103.087 38.6673C102.943 51.5743 96.204 51.5323 98.364 53.8553C98.881 54.4113 99.138 54.0403 100.53 53.8823C100.701 53.8633 115.855 53.0513 118.569 53.4633C121.862 53.9643 128.55 57.2403 128.447 65.6563C128.279 79.4103 128.466 80.0533 125.029 85.0013C123.325 87.4553 123.381 87.5023 120.167 90.3633C118.23 92.0883 121.229 93.4773 123.448 95.7463C124.492 96.8133 130.373 102.826 128.627 113.671C128.017 117.463 126.416 119.933 126.158 120.429C124.122 123.358 121.955 125.285 121.538 125.656C116.982 129.121 114.365 129.463 109.538 129.633C107.947 129.648 89.926 129.809 89.656 129.96C89.6 129.992 89.022 131.394 89.038 131.461C89.206 132.168 94.885 136.719 91.635 143.704C88.601 150.222 78.11 152.893 70.227 141.864C63.253 132.106 67.332 118.93 72.812 114.834C73.396 114.397 73.426 114.387 73.448 113.671C73.493 112.148 72.558 113.062 66.533 113.027C59.786 112.988 59.506 113.837 53.502 110.725C52.234 110.068 47.979 106.865 46.458 103.698C42.557 95.5763 44.11 91.3333 44.806 87.7103C45.853 82.2613 51.151 77.7863 51.931 77.1273C52.284 76.7653 52.888 76.7263 53.241 76.3653C53.317 76.2873 53.444 74.9233 53.379 74.7753C53.273 74.5353 51.067 73.5563 48.155 69.9573C45.974 67.2623 45.622 65.1703 45.169 63.7623C42.519 49.8833 49.035 43.5123 55.384 40.3073C59.478 38.2393 59.845 38.4973 73.552 38.0193C75.805 37.9413 79.143 38.4273 78.32 35.7193C77.047 31.5273 77.584 30.2323 79.371 26.5553C79.81 25.9693 80.249 25.3833 80.689 24.7973Z" fill="#5C7CF3"/>
<path fill-rule="evenodd" clip-rule="evenodd" d="M87.524 95.2882C89.125 95.2402 89.097 95.1511 107.532 94.4931C128.385 93.7481 128.784 123.364 110.511 124.322C87.394 125.535 85.979 123.599 83.775 127.772C80.993 133.04 91.286 136.934 86.323 142.464C82.195 147.062 76.746 142.501 74.92 139.408C72.955 136.08 69.062 130.051 73.962 120.889C74.57 119.751 77.307 116.381 79.767 115.111C84.35 112.746 88.256 113.408 107.52 112.449C107.823 112.363 108.154 112.41 108.458 112.323C112.37 111.207 111.949 106.262 106.529 106.396C90.04 106.804 78.418 107.885 62.537 107.852C58.786 107.73 58.781 107.568 55.502 105.712C48.461 101.725 45.316 86.6682 56.757 80.0252C60.981 77.5732 61.252 78.2821 71.547 77.8951C92.493 77.1071 95.474 76.6631 106.538 76.6031C106.958 76.6011 110.78 76.5801 111.39 74.6011C111.955 72.7701 110.458 70.6161 107.538 70.6711C100.534 70.8011 100.569 70.9941 93.545 71.0931C84.475 71.2221 62.03 73.3201 58.467 71.8141C49.791 68.1481 46.41 56.0361 53.075 48.2512C53.441 47.8242 55.421 45.5111 58.743 44.0811C61.913 42.7181 81.616 43.9521 84.248 42.1651C89.517 38.5901 79.665 33.8451 83.607 28.7081C91.219 18.7891 107.048 41.9391 90.846 52.1551C87.029 54.5621 84.549 53.9821 69.528 54.4631C67.224 54.5361 60.706 53.8001 60.612 57.6581C60.538 60.6801 64.144 60.5891 64.535 60.5791C70.313 60.4321 72.716 59.8141 81.536 59.5911C89.058 59.4011 89.005 58.7231 96.537 58.7731C107.045 58.8441 107.014 58.2531 117.538 58.3471C125.263 58.4171 123.373 62.3692 123.129 74.6502C123.086 76.8432 123.136 81.4232 117.693 85.8591C113.065 89.6312 111.542 87.9211 92.522 89.2411C88.838 89.4971 64.684 89.4562 62.397 90.3212C59.613 91.3732 59.808 96.4201 64.531 96.3421C66.372 96.3121 66.335 95.9142 87.524 95.2882Z" fill="#FAFBFD"/>
</svg>
